<svg width="15" height="24" viewBox="0 0 15 24" fill="none" xmlns="http://www.w3.org/2000/svg">
<path d="M7.98277 3.04798C8.61858 3.04811 9.24469 3.20432 9.80645 3.50297C10.3682 3.80162 10.8485 4.23363 11.2055 4.76129C11.5625 5.28895 11.7852 5.89623 11.8543 6.5301C11.9234 7.16397 11.8368 7.80517 11.6019 8.39772C11.3827 8.93617 11.0484 9.41985 10.6226 9.8147L8.99766 11.362C8.91123 11.4438 8.84237 11.5425 8.7953 11.6519C8.74823 11.7614 8.72396 11.8793 8.72396 11.9985C8.72396 12.1177 8.74823 12.2356 8.7953 12.3451C8.84237 12.4545 8.91123 12.5532 8.99766 12.635L10.6075 14.1631C11.1045 14.622 11.4769 15.2003 11.6894 15.8434C11.8782 16.4294 11.926 17.0519 11.8291 17.66C11.7322 18.2681 11.4933 18.8446 11.1319 19.3424C10.7705 19.8402 10.2968 20.2453 9.74947 20.5245C9.20218 20.8037 8.5968 20.9492 7.98277 20.949H3.56484C3.50868 20.9538 3.45221 20.9446 3.40046 20.9222C3.34871 20.8998 3.30329 20.8649 3.26823 20.8206C3.23316 20.7764 3.20955 20.7241 3.1995 20.6685C3.18944 20.6129 3.19325 20.5556 3.21059 20.5018C4.77943 15.5403 4.77943 9.70634 3.21059 3.47321C3.19781 3.42072 3.19754 3.36595 3.20978 3.31333C3.22202 3.26071 3.24644 3.21172 3.28106 3.17032C3.31569 3.12892 3.35954 3.09627 3.40908 3.07502C3.45861 3.05376 3.51245 3.0445 3.56621 3.04798H7.9773H7.98277ZM7.9773 0H2.04798C0.909984 0 -0.241685 1.06721 0.0441811 2.17145C1.95223 9.54311 2.00694 13.5225 0.0688001 21.805C-0.192446 22.9243 0.919558 23.9997 2.06439 23.9997H7.98277C9.34929 23.9998 10.6853 23.5948 11.823 22.8355C12.9606 22.0762 13.849 20.9966 14.3766 19.7324C14.9041 18.4682 15.0472 17.0758 14.7879 15.7302C14.5285 14.3846 13.8784 13.146 12.9191 12.17C12.8969 12.1481 12.8793 12.1221 12.8673 12.0933C12.8553 12.0646 12.8491 12.0338 12.8491 12.0026C12.8491 11.9714 12.8553 11.9406 12.8673 11.9119C12.8793 11.8831 12.8969 11.8571 12.9191 11.8353C13.8788 10.8593 14.5294 9.62054 14.789 8.27474C15.0486 6.92895 14.9056 5.53622 14.378 4.27172C13.8504 3.00721 12.9618 1.92738 11.8239 1.16804C10.686 0.408703 9.34957 0.00375344 7.98277 0.0041192L7.9773 0Z" fill="#FBFBFB"/>
</svg>
